<mxfile host="app.diagrams.net" agent="Mozilla/5.0 (Windows NT 10.0; Win64; x64) AppleWebKit/537.36 (KHTML, like Gecko) Chrome/122.0.0.0 Safari/537.36" version="26.2.4">
  <diagram name="Trang-1" id="X5aux_rCv3ORfe7upRhj">
    <mxGraphModel dx="2025" dy="1007" grid="1" gridSize="10" guides="1" tooltips="1" connect="1" arrows="1" fold="1" page="1" pageScale="1" pageWidth="827" pageHeight="1169" math="0" shadow="0">
      <root>
        <mxCell id="0" />
        <mxCell id="1" parent="0" />
        <mxCell id="jkBcjR_GSX8vf3VZzsag-6" style="edgeStyle=orthogonalEdgeStyle;rounded=0;orthogonalLoop=1;jettySize=auto;html=1;" edge="1" parent="1" source="jkBcjR_GSX8vf3VZzsag-1" target="jkBcjR_GSX8vf3VZzsag-2">
          <mxGeometry relative="1" as="geometry" />
        </mxCell>
        <mxCell id="jkBcjR_GSX8vf3VZzsag-1" value="BEGIN" style="ellipse;whiteSpace=wrap;html=1;" vertex="1" parent="1">
          <mxGeometry x="340" y="20" width="120" height="80" as="geometry" />
        </mxCell>
        <mxCell id="jkBcjR_GSX8vf3VZzsag-7" style="edgeStyle=orthogonalEdgeStyle;rounded=0;orthogonalLoop=1;jettySize=auto;html=1;" edge="1" parent="1" source="jkBcjR_GSX8vf3VZzsag-2" target="jkBcjR_GSX8vf3VZzsag-3">
          <mxGeometry relative="1" as="geometry" />
        </mxCell>
        <mxCell id="jkBcjR_GSX8vf3VZzsag-2" value="Input USD" style="shape=parallelogram;perimeter=parallelogramPerimeter;whiteSpace=wrap;html=1;fixedSize=1;" vertex="1" parent="1">
          <mxGeometry x="310" y="150" width="180" height="60" as="geometry" />
        </mxCell>
        <mxCell id="jkBcjR_GSX8vf3VZzsag-9" style="edgeStyle=orthogonalEdgeStyle;rounded=0;orthogonalLoop=1;jettySize=auto;html=1;" edge="1" parent="1" source="jkBcjR_GSX8vf3VZzsag-3" target="jkBcjR_GSX8vf3VZzsag-4">
          <mxGeometry relative="1" as="geometry" />
        </mxCell>
        <mxCell id="jkBcjR_GSX8vf3VZzsag-12" style="edgeStyle=orthogonalEdgeStyle;rounded=0;orthogonalLoop=1;jettySize=auto;html=1;" edge="1" parent="1" source="jkBcjR_GSX8vf3VZzsag-3" target="jkBcjR_GSX8vf3VZzsag-2">
          <mxGeometry relative="1" as="geometry">
            <Array as="points">
              <mxPoint x="540" y="300" />
              <mxPoint x="540" y="180" />
            </Array>
          </mxGeometry>
        </mxCell>
        <mxCell id="jkBcjR_GSX8vf3VZzsag-3" value="USD là số" style="rhombus;whiteSpace=wrap;html=1;" vertex="1" parent="1">
          <mxGeometry x="300" y="260" width="200" height="80" as="geometry" />
        </mxCell>
        <mxCell id="jkBcjR_GSX8vf3VZzsag-10" style="edgeStyle=orthogonalEdgeStyle;rounded=0;orthogonalLoop=1;jettySize=auto;html=1;" edge="1" parent="1" source="jkBcjR_GSX8vf3VZzsag-4" target="jkBcjR_GSX8vf3VZzsag-5">
          <mxGeometry relative="1" as="geometry" />
        </mxCell>
        <mxCell id="jkBcjR_GSX8vf3VZzsag-4" value="1USD = VND * 23000" style="rounded=0;whiteSpace=wrap;html=1;" vertex="1" parent="1">
          <mxGeometry x="330" y="400" width="140" height="60" as="geometry" />
        </mxCell>
        <mxCell id="jkBcjR_GSX8vf3VZzsag-14" style="edgeStyle=orthogonalEdgeStyle;rounded=0;orthogonalLoop=1;jettySize=auto;html=1;" edge="1" parent="1" source="jkBcjR_GSX8vf3VZzsag-5">
          <mxGeometry relative="1" as="geometry">
            <mxPoint x="400" y="630" as="targetPoint" />
          </mxGeometry>
        </mxCell>
        <mxCell id="jkBcjR_GSX8vf3VZzsag-5" value="Display value" style="shape=parallelogram;perimeter=parallelogramPerimeter;whiteSpace=wrap;html=1;fixedSize=1;" vertex="1" parent="1">
          <mxGeometry x="340" y="520" width="120" height="60" as="geometry" />
        </mxCell>
        <mxCell id="jkBcjR_GSX8vf3VZzsag-11" value="True" style="text;html=1;align=center;verticalAlign=middle;resizable=0;points=[];autosize=1;strokeColor=none;fillColor=none;" vertex="1" parent="1">
          <mxGeometry x="400" y="348" width="50" height="30" as="geometry" />
        </mxCell>
        <mxCell id="jkBcjR_GSX8vf3VZzsag-13" value="False" style="text;html=1;align=center;verticalAlign=middle;resizable=0;points=[];autosize=1;strokeColor=none;fillColor=none;" vertex="1" parent="1">
          <mxGeometry x="540" y="230" width="50" height="30" as="geometry" />
        </mxCell>
        <mxCell id="jkBcjR_GSX8vf3VZzsag-15" value="END" style="ellipse;whiteSpace=wrap;html=1;" vertex="1" parent="1">
          <mxGeometry x="340" y="630" width="120" height="80" as="geometry" />
        </mxCell>
      </root>
    </mxGraphModel>
  </diagram>
</mxfile>
